 <svg xmlns="http://www.w3.org/2000/svg" width="20" height="15" viewBox="0 0 20 19" fill="none">
                        <path d="M19.3181 5.324C19.3072 4.56662 19.1546 3.81678 18.8671 3.108C18.6178 2.51015 18.237 1.9672 17.7491 1.51383C17.2612 1.06046 16.6769 0.706651 16.0334 0.475C15.2805 0.212357 14.485 0.0703413 13.6808 0.0550001C12.6455 0.0120001 12.3173 0 9.68916 0C7.06104 0 6.72419 6.70552e-08 5.6964 0.0550001C4.89264 0.0704541 4.09752 0.212468 3.34488 0.475C2.70136 0.706489 2.11694 1.06024 1.62899 1.51363C1.14105 1.96702 0.760334 2.51006 0.511202 3.108C0.227976 3.80713 0.0754676 4.54611 0.060268 5.293C0.0139908 6.256 0 6.561 0 9.003C0 11.445 -8.01842e-09 11.757 0.060268 12.713C0.0764112 13.461 0.228157 14.199 0.511202 14.9C0.760752 15.4978 1.14175 16.0406 1.62986 16.4938C2.11796 16.947 2.70244 17.3006 3.34595 17.532C4.09654 17.8052 4.8918 17.9574 5.69748 17.982C6.73388 18.025 7.06212 18.038 9.69024 18.038C12.3184 18.038 12.6552 18.038 13.683 17.982C14.4871 17.9673 15.2826 17.8256 16.0356 17.563C16.6788 17.3311 17.263 16.9772 17.7509 16.5238C18.2388 16.0705 18.6197 15.5277 18.8693 14.93C19.1523 14.23 19.3041 13.492 19.3202 12.743C19.3665 11.781 19.3805 11.476 19.3805 9.033C19.3783 6.591 19.3783 6.281 19.3181 5.324ZM9.6827 13.621C6.93405 13.621 4.70736 11.552 4.70736 8.998C4.70736 6.444 6.93405 4.375 9.6827 4.375C11.0022 4.375 12.2677 4.86207 13.2008 5.72905C14.1339 6.59603 14.658 7.7719 14.658 8.998C14.658 10.2241 14.1339 11.4 13.2008 12.267C12.2677 13.1339 11.0022 13.621 9.6827 13.621ZM14.8561 5.282C14.7037 5.28213 14.5527 5.25434 14.4119 5.20021C14.2711 5.14608 14.1432 5.06668 14.0354 4.96655C13.9276 4.86643 13.8422 4.74754 13.7839 4.61669C13.7257 4.48584 13.6958 4.3456 13.6959 4.204C13.6959 4.0625 13.7259 3.92239 13.7842 3.79166C13.8425 3.66093 13.9279 3.54215 14.0356 3.44209C14.1432 3.34204 14.2711 3.26267 14.4118 3.20852C14.5525 3.15437 14.7032 3.1265 14.8555 3.1265C15.0078 3.1265 15.1586 3.15437 15.2993 3.20852C15.44 3.26267 15.5678 3.34204 15.6755 3.44209C15.7832 3.54215 15.8686 3.66093 15.9269 3.79166C15.9852 3.92239 16.0152 4.0625 16.0152 4.204C16.0152 4.8 15.4964 5.282 14.8561 5.282Z" fill="white"/>
                        <path d="M9.68268 12.001C11.4676 12.001 12.9146 10.6565 12.9146 8.99803C12.9146 7.33951 11.4676 5.99503 9.68268 5.99503C7.89776 5.99503 6.45081 7.33951 6.45081 8.99803C6.45081 10.6565 7.89776 12.001 9.68268 12.001Z" fill="white"/>
                    </svg>