<svg xmlns="http://www.w3.org/2000/svg" width="18" height="15" viewBox="0 0 18 18" fill="none">
                        <path d="M16.8323 0H1.32797C1.07097 0 0.824495 0.105357 0.642768 0.292893C0.461041 0.48043 0.358948 0.734784 0.358948 1V17C0.358948 17.2652 0.461041 17.5196 0.642768 17.7071C0.824495 17.8946 1.07097 18 1.32797 18H16.8323C17.0893 18 17.3358 17.8946 17.5176 17.7071C17.6993 17.5196 17.8014 17.2652 17.8014 17V1C17.8014 0.734784 17.6993 0.48043 17.5176 0.292893C17.3358 0.105357 17.0893 0 16.8323 0ZM5.53256 15.337H2.94333V6.747H5.53256V15.337ZM4.23795 5.574C3.84011 5.574 3.45857 5.41091 3.17725 5.1206C2.89594 4.8303 2.7379 4.43655 2.7379 4.026C2.7379 3.61544 2.89594 3.22171 3.17725 2.9314C3.45857 2.64109 3.84011 2.478 4.23795 2.478C4.63579 2.478 5.01733 2.64109 5.29864 2.9314C5.57996 3.22171 5.738 3.61544 5.738 4.026C5.738 4.43655 5.57996 4.8303 5.29864 5.1206C5.01733 5.41091 4.63579 5.574 4.23795 5.574ZM15.2218 15.337H12.6355V11.16C12.6355 10.164 12.6181 8.883 11.2905 8.883C9.94356 8.883 9.7391 9.969 9.7391 11.09V15.338H7.15471V6.748H9.63541V7.922H9.67126C10.0153 7.247 10.8603 6.535 12.1171 6.535C14.7373 6.535 15.2209 8.313 15.2209 10.627L15.2218 15.337Z" fill="white"/>
                    </svg>