<svg xmlns="http://www.w3.org/2000/svg" width="18" height="15" viewBox="0 0 18 18" fill="none">
<path d="M17.1766 13.9547L13.2375 10.2587C13.0513 10.084 12.8066 9.9909 12.5551 9.99892C12.3036 10.0069 12.065 10.1155 11.8896 10.3017L9.57071 12.7627C9.01255 12.6527 7.89042 12.2917 6.73535 11.1027C5.58027 9.90969 5.23045 8.74869 5.12677 8.17669L7.5096 5.78269C7.69023 5.60182 7.79559 5.35551 7.80337 5.0959C7.81114 4.83628 7.72073 4.58373 7.55127 4.39169L3.97072 0.327692C3.80119 0.135049 3.56555 0.0181963 3.31387 0.00195179C3.06219 -0.0142928 2.81429 0.0713504 2.62281 0.240692L0.52003 2.10169C0.352497 2.27521 0.252501 2.50614 0.239013 2.75069C0.224478 3.00069 -0.052663 8.92269 4.39709 13.5167C8.279 17.5217 13.1416 17.8147 14.4808 17.8147C14.6765 17.8147 14.7967 17.8087 14.8286 17.8067C15.0656 17.793 15.2892 17.6894 15.4566 17.5157L17.2589 15.3447C17.4237 15.1477 17.5073 14.8921 17.4919 14.6324C17.4765 14.3727 17.3633 14.1295 17.1766 13.9547Z" fill="white"/>
</svg>