<svg xmlns="http://www.w3.org/2000/svg" width="17" height="20" viewBox="0 0 17 20" fill="none">
<path fill-rule="evenodd" clip-rule="evenodd" d="M14.523 2.90685C13.7389 1.98268 12.806 1.24988 11.7782 0.750913C10.7505 0.251943 9.64839 -0.00327912 8.53581 3.18051e-05C3.87049 3.18051e-05 0.0726011 4.44582 0.0707154 9.91059C0.0707154 11.6571 0.460121 13.3617 1.20027 14.8653L0 20L4.48712 18.6211C5.72831 19.4122 7.11886 19.8271 8.53204 19.8278H8.53581C13.2002 19.8278 16.9981 15.382 17 9.91722C17.0032 8.61504 16.7859 7.32503 16.3608 6.12175C15.9356 4.91847 15.311 3.82578 14.523 2.90685ZM8.53581 18.1552H8.53298C7.27285 18.1554 6.03591 17.7584 4.95196 17.006L4.6955 16.8271L2.03283 17.6452L2.74281 14.6059L2.57592 14.2946C1.8714 12.9813 1.49844 11.4615 1.50011 9.91059C1.50199 5.36876 4.65778 1.67369 8.53864 1.67369C9.46289 1.67128 10.3784 1.88354 11.2321 2.29816C12.0858 2.71279 12.8608 3.32156 13.5123 4.08923C14.1672 4.85324 14.6863 5.76166 15.0396 6.762C15.3929 7.76233 15.5734 8.83473 15.5706 9.91722C15.5687 14.4591 12.4129 18.1552 8.53581 18.1552ZM12.395 11.985C12.1828 11.8602 11.1438 11.2619 10.9496 11.1791C10.7563 11.0963 10.6158 11.0554 10.4744 11.3027C10.3329 11.55 9.92749 12.1075 9.80397 12.2731C9.68046 12.4387 9.55694 12.4586 9.34574 12.335C9.13453 12.2113 8.45284 11.9497 7.6448 11.1062C7.0159 10.4493 6.59161 9.63901 6.46809 9.39061C6.34458 9.14221 6.45489 9.00863 6.56144 8.88498C6.65667 8.77458 6.77264 8.59573 6.87824 8.45111C6.98385 8.30649 7.01873 8.20382 7.08945 8.03822C7.16016 7.87262 7.12528 7.72799 7.07153 7.60435C7.01873 7.4796 6.59538 6.26079 6.41907 5.76509C6.24841 5.28485 6.07398 5.34889 5.94386 5.34226C5.8091 5.33581 5.67424 5.33286 5.53937 5.33343C5.43212 5.33663 5.3266 5.36574 5.22941 5.41893C5.13222 5.47213 5.04547 5.54826 4.97459 5.64255C4.78036 5.89095 4.23443 6.48931 4.23443 7.70812C4.23443 8.92693 4.9925 10.1049 5.0981 10.2705C5.2037 10.4361 6.58973 12.9366 8.71119 14.0097C9.21656 14.2647 9.61068 14.4171 9.91712 14.5319C10.4234 14.7207 10.8845 14.6931 11.2494 14.6302C11.6558 14.5595 12.5006 14.0318 12.6769 13.4533C12.8532 12.8748 12.8532 12.3791 12.8004 12.2753C12.7476 12.1716 12.6052 12.1086 12.395 11.985Z" fill="white"/>
</svg>

